<svg  xmlns="http://www.w3.org/2000/svg"  width="24"  height="24"  viewBox="0 0 24 24"  fill="none" stroke="#000" stroke-width="2"><path stroke="none" d="M0 0h24v24H0z" fill="none"/><path d="M12.1 23.5h-.2C5.6 23.5.5 18.3.5 12S5.7.5 12 .5 23.5 5.2 23.5 11c0 1.8-.8 3.5-2.2 4.7-1.3 1.2-3 1.8-4.8 1.8h-1.3c1 1.4.9 3.4-.3 4.8-.7.8-1.7 1.2-2.8 1.2z" stroke-width="0" fill="#fff"/><path fill="#fff" d="M12 21a9 9 0 0 1 0 -18c4.97 0 9 3.582 9 8c0 1.06 -.474 2.078 -1.318 2.828c-.844 .75 -1.989 1.172 -3.182 1.172h-2.5a2 2 0 0 0 -1 3.75a1.3 1.3 0 0 1 -1 2.25" /><path stroke="#f00" d="M8.5 10.5m-1 0a1 1 0 1 0 2 0a1 1 0 1 0 -2 0" /><path stroke="#0f0" d="M12.5 7.5m-1 0a1 1 0 1 0 2 0a1 1 0 1 0 -2 0" /><path stroke="#00f" d="M16.5 10.5m-1 0a1 1 0 1 0 2 0a1 1 0 1 0 -2 0" /></svg>